<?xml version="1.0" encoding="UTF-8" standalone="no"?>
<!-- Created with Inkscape (http://www.inkscape.org/) -->

<svg
   version="1.1"
   id="svg2"
   width="1226.6801"
   height="1119.92"
   viewBox="0 0 1226.6801 1119.92"
   sodipodi:docname="BioML-06.eps"
   xmlns:inkscape="http://www.inkscape.org/namespaces/inkscape"
   xmlns:sodipodi="http://sodipodi.sourceforge.net/DTD/sodipodi-0.dtd"
   xmlns="http://www.w3.org/2000/svg"
   xmlns:svg="http://www.w3.org/2000/svg">
  <defs
     id="defs6" />
  <sodipodi:namedview
     id="namedview4"
     pagecolor="#ffffff"
     bordercolor="#000000"
     borderopacity="0.25"
     inkscape:showpageshadow="2"
     inkscape:pageopacity="0.0"
     inkscape:pagecheckerboard="0"
     inkscape:deskcolor="#d1d1d1" />
  <g
     id="g8"
     inkscape:groupmode="layer"
     inkscape:label="ink_ext_XXXXXX"
     transform="matrix(1.3333333,0,0,-1.3333333,0,1119.92)">
    <g
       id="g10"
       transform="scale(0.1)">
      <path
         d="m 1001.36,421.289 c 217.12,0 362.95,77.77 362.95,265.731 0,191.199 -136.11,275.449 -337.02,275.449 H 453.691 v -541.18 z m -42.126,907.381 c 158.786,0 236.566,77.77 236.566,204.16 0,126.38 -77.78,210.64 -246.288,210.64 H 453.691 v -414.8 z M 0,2132.34 h 991.637 c 346.753,0 654.613,-145.82 654.613,-547.66 0,-152.31 -93.98,-307.87 -207.4,-372.68 226.84,-55.09 398.6,-256.012 398.6,-531.461 0,-443.969 -349.99,-648.1288 -813.41,-648.1288 L 0,32.4102 V 2132.34"
         style="fill:#100f0d;fill-opacity:1;fill-rule:nonzero;stroke:none"
         id="path12" />
      <path
         d="m 2138.77,1652.73 h 434.25 V 32.4102 h -434.25 z m -42.12,453.69 c 0,142.59 116.66,259.25 256.01,259.25 142.58,0 259.25,-116.66 259.25,-259.25 0,-139.35 -116.67,-256.01 -259.25,-256.01 -139.35,0 -256.01,116.66 -256.01,256.01"
         style="fill:#100f0d;fill-opacity:1;fill-rule:nonzero;stroke:none"
         id="path14" />
      <path
         d="m 4144.71,842.57 c 0,252.77 -181.48,440.73 -424.52,440.73 -243.06,0 -424.53,-187.96 -424.53,-440.73 0,-256.011 181.47,-440.73 424.53,-440.73 243.04,0 424.52,184.719 424.52,440.73 z m -1289.78,0 c 0,469.89 382.4,842.57 865.26,842.57 486.09,0 868.49,-372.68 868.49,-842.57 C 4588.68,372.68 4206.28,0 3720.19,0 3237.33,0 2854.93,372.68 2854.93,842.57"
         style="fill:#100f0d;fill-opacity:1;fill-rule:nonzero;stroke:none"
         id="path16" />
      <path
         d="m 4912.74,2132.34 h 392.12 l 330.55,-466.65 c 123.14,-171.75 379.15,-544.43 379.15,-544.43 0,0 259.25,369.44 379.16,541.19 l 330.54,469.89 h 392.12 V 32.4102 H 6662.69 V 1361.07 c 0,0 -81.02,-132.86 -191.2,-291.66 L 6014.56,418.039 5554.39,1072.65 c -106.94,152.31 -187.96,288.42 -187.96,288.42 V 32.4102 H 4912.74 V 2132.34"
         style="fill:#100f0d;fill-opacity:1;fill-rule:nonzero;stroke:none"
         id="path18" />
      <path
         d="m 7531.16,2132.34 h 453.68 V 421.289 H 9200.09 V 32.4102 H 7531.16 V 2132.34"
         style="fill:#100f0d;fill-opacity:1;fill-rule:nonzero;stroke:none"
         id="path20" />
      <path
         d="M 3511.62,6514.67 V 4967.24 c 64.66,13.58 125.05,52.76 184.25,119.54 l -6.44,1315.61 c -56.35,61.48 -116.12,99.22 -177.81,112.28 z m -1458.17,-9.49 c -74.08,-247.25 -111.63,-504.26 -111.63,-764.05 0,-259.89 37.56,-516.97 111.69,-764.26 34.79,10.01 69.04,25.34 101.94,45.65 l 7.04,1432.95 c -34.54,22.15 -71.18,38.85 -109.04,49.71 z M 4148.3,5290.76 c -106.17,359.26 -215.87,730.4 -356.38,969.26 l 5.04,-1029.38 c 53.87,93.26 107.02,212.56 162.08,363.62 l 6.95,19.07 6.1,-19.35 c 18.6,-58.95 38.54,-124.18 62.74,-205.29 l 0.7,-2.36 -0.95,-2.28 c -75.37,-179.6 -152.71,-311.68 -236.4,-403.65 l 0.1,-16.7 h -15.86 c -96.88,-99.77 -202.13,-148.28 -321.7,-148.28 -426.42,0 -628.85,455.44 -824.63,895.88 -115.86,260.7 -225.43,507.23 -372.23,659.36 l -6.2,-1265.55 c 116.77,117.89 210.54,294.88 314.41,522.98 l 6.34,13.93 6.24,-13.97 c 28.41,-63.68 50.7,-112.52 72.27,-158.36 l 1.41,-2.96 -1.42,-2.95 c -127.78,-266.29 -293.84,-548.38 -557.34,-626.41 379.46,-1049.7 1383.38,-1754.46 2500.48,-1754.46 749.17,0 1466.14,318.09 1969.62,873.28 h -1593.4 c -433.61,0 -625.16,648.26 -827.97,1334.57 z m -738.47,-325.47 v 1551.73 c -63.05,-7.99 -121.25,-30.67 -177.59,-69.16 l -6.91,-1408.68 c 58.36,-41.34 118.82,-65.57 184.5,-73.89 z M 7067.1,6732.38 c -96.12,-297.79 -168.67,-729.93 -227.19,-1078.52 -114.7,-683.02 -193.44,-1106.82 -359.96,-1208.62 -41.43,-25.29 -88.13,-31.09 -133.51,-16.63 -196.87,62.4 -273.26,516.3 -375.64,1256.43 l -0.28,2.02 c -32.72,236.37 -63.6,459.62 -99.85,634.31 -38.58,185.97 -71.48,252.99 -87.79,276.45 -16.71,-24.27 -50.29,-94.68 -87.54,-293.54 -34.05,-181.88 -61.33,-413.83 -87.73,-638.15 -69.05,-587.04 -107.05,-832.51 -206.36,-896.65 -27.66,-17.87 -59.81,-22.33 -90.58,-12.54 -116.16,36.83 -156.19,252.28 -225.05,925.37 -19.28,188.2 -45.14,440.76 -74.7,586.74 -28.97,-148.15 -52.28,-405.74 -69.65,-597.44 -47.35,-523.02 -70.13,-671.25 -140.05,-717.76 -22.95,-15.26 -50.93,-19.26 -76.78,-11.08 -92.56,29.35 -116.82,163.81 -151.74,398.95 -12.44,83.64 -33.01,222.11 -54.85,268.27 h -312.38 c 28.83,-93.68 57.67,-191.29 83.22,-277.74 178.69,-604.59 363.4,-1229.65 687.58,-1229.65 h 1717.1 c 369.59,471.46 564.9,1037.95 564.9,1638.53 0,342.52 -64.3,675.89 -191.17,991.25 z M 2099.57,6644.9 c 379.49,1049.7 1383.4,1754.46 2500.48,1754.46 749.17,0 1466.14,-318.1 1969.62,-873.3 h -1593.4 c -433.61,0 -625.18,-648.26 -827.97,-1334.58 -9.33,-31.54 -18.67,-63.14 -28.06,-94.71 l -2.63,-8.86 h 8.52 c 23.12,-57.41 46.88,-121.4 72.54,-195.42 l 6.94,-19.98 6.18,20.22 c 26.54,86.78 53.29,177.35 76.96,257.47 178.64,604.44 363.36,1229.46 687.52,1229.46 h 1717.1 c 110.68,-141.21 207.45,-294.52 287.7,-455.76 C 6864.38,6649.49 6782.69,6197.29 6695.5,5678.11 6614,5192.6 6521.63,4642.33 6403.58,4570.16 c -5.95,-3.62 -8.38,-3.42 -12.89,-2.01 -11.88,3.76 -74.79,38.67 -147.31,357.21 -50.14,220.18 -89.46,504.38 -127.56,779.74 -83.34,602.36 -136.75,947.1 -265.18,1028.18 -20.99,13.24 -44.13,19.99 -67.53,19.99 -12.65,0 -25.37,-1.97 -37.87,-5.95 -148.44,-47.03 -200.24,-360.35 -283.02,-1064.07 -28.92,-245.82 -71.97,-611.89 -119.39,-746.88 -48,139.69 -87.51,525.66 -111.6,760.85 -54.67,534.23 -83.25,741.3 -167.33,796.49 -24.98,16.42 -54.12,20.56 -82,11.65 -101.07,-32.02 -130.56,-203.64 -186.49,-821.38 -14.3,-157.82 -31.79,-350.72 -51.86,-480.73 -10.24,53.69 -19.14,113.43 -26.06,159.99 -33.89,228.24 -58.39,393.16 -177.98,393.16 h -380.29 c -154.16,473.49 -345.75,910.42 -698.5,910.42 -352.1,0 -550.16,-311.64 -711.76,-648.41 l -1.41,-2.95 1.4,-2.97 c 22.2,-47.19 45.86,-98.95 72.31,-158.26 l 6.24,-13.97 6.35,13.93 c 85.32,187.38 180.12,377.47 296.15,503.76 L 3123.98,5131 c -137.92,153.39 -243.03,389.89 -354.14,639.86 -170.04,382.58 -345.9,778.15 -670.27,874.04"
         style="fill:#100f0d;fill-opacity:1;fill-rule:nonzero;stroke:none"
         id="path22" />
    </g>
  </g>
</svg>
