<?xml version="1.0" encoding="UTF-8" standalone="no"?>
<!-- Created with Inkscape (http://www.inkscape.org/) -->

<svg
   version="1.1"
   id="svg2"
   width="708.8667"
   height="708.8667"
   viewBox="0 0 708.8667 708.8667"
   sodipodi:docname="BioML-08.eps"
   xmlns:inkscape="http://www.inkscape.org/namespaces/inkscape"
   xmlns:sodipodi="http://sodipodi.sourceforge.net/DTD/sodipodi-0.dtd"
   xmlns="http://www.w3.org/2000/svg"
   xmlns:svg="http://www.w3.org/2000/svg">
  <defs
     id="defs6" />
  <sodipodi:namedview
     id="namedview4"
     pagecolor="#ffffff"
     bordercolor="#000000"
     borderopacity="0.25"
     inkscape:showpageshadow="2"
     inkscape:pageopacity="0.0"
     inkscape:pagecheckerboard="0"
     inkscape:deskcolor="#d1d1d1" />
  <g
     id="g8"
     inkscape:groupmode="layer"
     inkscape:label="ink_ext_XXXXXX"
     transform="matrix(1.3333333,0,0,-1.3333333,0,708.86667)">
    <g
       id="g10"
       transform="scale(0.1)">
      <path
         d="M 1569.8,3431.76 V 1884.33 c 64.67,13.58 125.06,52.76 184.26,119.54 l -6.44,1315.61 c -56.36,61.48 -116.12,99.22 -177.82,112.28 z M 111.637,3422.27 C 37.5547,3175.02 0,2918.01 0,2658.22 c 0,-259.89 37.5664,-516.97 111.688,-764.26 34.792,10.01 69.046,25.34 101.953,45.65 l 7.031,1432.95 c -34.535,22.15 -71.172,38.85 -109.035,49.71 z M 2206.48,2207.85 c -106.17,359.26 -215.86,730.39 -356.38,969.26 l 5.04,-1029.38 c 53.88,93.26 107.03,212.56 162.08,363.62 l 6.95,19.07 6.1,-19.35 c 18.6,-58.95 38.54,-124.18 62.75,-205.29 l 0.7,-2.36 -0.96,-2.28 c -75.36,-179.6 -152.7,-311.68 -236.39,-403.65 l 0.09,-16.7 h -15.85 c -96.89,-99.77 -202.14,-148.28 -321.71,-148.28 -426.41,0 -628.845,455.44 -824.627,895.87 -115.851,260.71 -225.425,507.24 -372.23,659.37 L 315.848,2022.2 c 116.765,117.89 210.543,294.88 314.402,522.98 l 6.348,13.93 6.234,-13.97 c 28.406,-63.68 50.699,-112.52 72.277,-158.36 l 1.403,-2.96 -1.414,-2.95 C 587.313,2114.58 421.262,1832.49 157.758,1754.46 537.219,704.762 1541.14,0 2658.24,0 3407.41,0 4124.38,318.09 4627.86,873.281 H 3034.45 c -433.61,0 -625.16,648.259 -827.97,1334.569 z m -738.46,-325.47 v 1551.73 c -63.05,-7.99 -121.26,-30.67 -177.6,-69.16 l -6.91,-1408.68 c 58.37,-41.34 118.83,-65.57 184.51,-73.89 z M 5125.29,3649.47 C 5029.17,3351.68 4956.62,2919.54 4898.1,2570.95 4783.4,1887.93 4704.66,1464.13 4538.14,1362.33 4496.7,1337.04 4450,1331.24 4404.63,1345.7 4207.76,1408.1 4131.37,1862 4028.99,2602.13 l -0.28,2.02 c -32.72,236.37 -63.61,459.62 -99.85,634.31 -38.58,185.97 -71.49,252.98 -87.8,276.45 -16.7,-24.27 -50.28,-94.68 -87.54,-293.54 -34.05,-181.88 -61.32,-413.83 -87.72,-638.15 -69.05,-587.04 -107.06,-832.51 -206.37,-896.65 -27.65,-17.87 -59.8,-22.33 -90.57,-12.54 -116.16,36.83 -156.19,252.28 -225.06,925.37 -19.28,188.2 -45.14,440.76 -74.69,586.74 -28.97,-148.15 -52.29,-405.74 -69.65,-597.44 -47.36,-523.02 -70.14,-671.25 -140.06,-717.76 -22.95,-15.26 -50.92,-19.26 -76.77,-11.09 -92.56,29.36 -116.82,163.82 -151.75,398.96 -12.43,83.64 -33,222.11 -54.85,268.27 h -312.37 c 28.83,-93.68 57.66,-191.29 83.22,-277.74 178.68,-604.59 363.4,-1229.65 687.57,-1229.65 h 1717.11 c 369.59,471.46 564.9,1037.95 564.9,1638.53 0,342.52 -64.3,675.89 -191.17,991.25 z M 157.758,3561.99 c 379.488,1049.7 1383.392,1754.46 2500.482,1754.46 749.17,0 1466.14,-318.1 1969.62,-873.3 H 3034.45 c -433.61,0 -625.17,-648.26 -827.97,-1334.58 -9.32,-31.54 -18.67,-63.14 -28.05,-94.71 l -2.63,-8.86 h 8.51 c 23.13,-57.41 46.89,-121.4 72.55,-195.42 l 6.94,-19.98 6.18,20.22 c 26.53,86.78 53.28,177.35 76.95,257.47 178.65,604.44 363.37,1229.46 687.52,1229.46 h 1717.11 c 110.68,-141.21 207.44,-294.52 287.7,-455.76 -116.69,-274.41 -198.38,-726.61 -285.57,-1245.79 -81.5,-485.51 -173.88,-1035.78 -291.92,-1107.95 -5.96,-3.63 -8.38,-3.42 -12.9,-2.01 -11.88,3.76 -74.78,38.67 -147.3,357.21 -50.15,220.18 -89.46,504.38 -127.57,779.74 -83.33,602.36 -136.74,947.1 -265.17,1028.18 -20.99,13.24 -44.13,19.99 -67.54,19.99 -12.65,0 -25.36,-1.97 -37.86,-5.95 -148.45,-47.03 -200.24,-360.35 -283.02,-1064.07 -28.92,-245.82 -71.97,-611.89 -119.4,-746.88 -47.99,139.69 -87.51,525.66 -111.59,760.85 -54.67,534.23 -83.26,741.3 -167.33,796.49 -24.99,16.42 -54.12,20.56 -82.01,11.65 -101.06,-32.02 -130.56,-203.64 -186.48,-821.38 -14.31,-157.82 -31.79,-350.72 -51.86,-480.73 -10.25,53.69 -19.14,113.43 -26.06,159.99 -33.89,228.24 -58.39,393.16 -177.99,393.16 h -380.28 c -154.16,473.48 -345.75,910.42 -698.51,910.42 -352.09,0 -550.158,-311.64 -711.752,-648.41 l -1.418,-2.95 1.403,-2.97 c 22.199,-47.19 45.863,-98.95 72.32,-158.26 l 6.235,-13.97 6.347,13.93 c 85.313,187.38 180.125,377.47 296.155,503.76 l -6.02,-1226.95 c -137.92,153.39 -243.033,389.89 -354.147,639.86 -170.039,382.58 -345.894,778.14 -670.265,874.04"
         style="fill:#100f0d;fill-opacity:1;fill-rule:nonzero;stroke:none"
         id="path12" />
    </g>
  </g>
</svg>
