<?xml version="1.0" encoding="UTF-8" standalone="no"?>
<!-- Created with Inkscape (http://www.inkscape.org/) -->

<svg
   version="1.1"
   id="svg2"
   width="1637.2"
   height="548.77332"
   viewBox="0 0 1637.2 548.77332"
   sodipodi:docname="BioML-01.eps"
   xmlns:inkscape="http://www.inkscape.org/namespaces/inkscape"
   xmlns:sodipodi="http://sodipodi.sourceforge.net/DTD/sodipodi-0.dtd"
   xmlns="http://www.w3.org/2000/svg"
   xmlns:svg="http://www.w3.org/2000/svg">
  <defs
     id="defs6">
    <clipPath
       clipPathUnits="userSpaceOnUse"
       id="clipPath28">
      <path
         d="M 1215.29,2656.74 V 1458.78 c 50.06,10.51 96.8,40.84 142.63,92.54 l -4.98,1018.5 c -43.63,47.59 -89.9,76.81 -137.65,86.92 z M 86.4219,2649.39 C 29.0742,2457.98 0,2259.02 0,2057.9 c 0,-201.21 29.082,-400.23 86.4648,-591.67 26.9332,7.75 53.4532,19.62 78.9262,35.34 l 5.445,1109.34 c -26.738,17.15 -55.102,30.08 -84.4141,38.48 z M 1708.18,1709.24 c -82.19,278.12 -167.12,565.44 -275.9,750.36 l 3.9,-796.91 c 41.71,72.2 82.86,164.56 125.48,281.5 l 5.38,14.77 4.72,-14.99 c 14.4,-45.63 29.84,-96.13 48.57,-158.92 l 0.55,-1.83 -0.74,-1.76 c -58.35,-139.04 -118.22,-241.3 -183.01,-312.5 l 0.07,-12.93 h -12.27 c -75,-77.23 -156.49,-114.78 -249.05,-114.78 -330.118,0 -486.833,352.58 -638.4,693.55 -89.687,201.82 -174.515,392.68 -288.167,510.46 l -4.797,-979.75 c 90.394,91.27 162.996,228.28 243.402,404.88 l 4.91,10.78 4.828,-10.81 c 21.992,-49.31 39.25,-87.12 55.953,-122.6 l 1.086,-2.3 -1.093,-2.28 C 454.676,1637.03 326.121,1418.64 122.125,1358.23 415.895,545.602 1193.1,0 2057.91,0 2637.89,0 3192.94,246.25 3582.72,676.059 H 2349.16 c -335.68,0 -483.97,501.861 -640.98,1033.181 z m -571.7,-251.98 v 1201.3 c -48.81,-6.19 -93.87,-23.74 -137.484,-53.54 l -5.351,-1090.55 c 45.185,-32 91.995,-50.76 142.835,-57.21 z m 2831.33,1368.02 c -74.41,-230.53 -130.58,-565.08 -175.88,-834.95 -88.8,-528.77 -149.75,-856.85 -278.67,-935.66 -32.08,-19.59 -68.23,-24.07 -103.36,-12.88 -152.41,48.31 -211.54,399.7 -290.8,972.68 l -0.22,1.57 c -25.33,182.98 -49.24,355.81 -77.3,491.06 -29.87,143.96 -55.34,195.85 -67.97,214.01 -12.93,-18.79 -38.93,-73.29 -67.77,-227.25 -26.36,-140.8 -47.48,-320.37 -67.92,-494.03 -53.45,-454.46 -82.87,-644.5 -159.76,-694.15 -21.4,-13.84 -46.29,-17.29 -70.11,-9.71 -89.93,28.51 -120.92,195.31 -174.24,716.39 -14.92,145.69 -34.94,341.22 -57.82,454.23 -22.43,-114.69 -40.48,-314.11 -53.92,-462.51 -36.66,-404.91 -54.29,-519.66 -108.42,-555.67 -17.77,-11.81 -39.43,-14.91 -59.44,-8.58 -71.66,22.72 -90.44,126.82 -117.48,308.86 -9.62,64.75 -25.55,171.95 -42.46,207.68 h -241.83 c 22.32,-72.52 44.64,-148.09 64.43,-215.02 138.33,-468.05 281.33,-951.94 532.29,-951.94 h 1329.32 c 286.13,364.98 437.33,803.54 437.33,1268.49 0,265.16 -49.78,523.25 -148,767.38 z M 122.125,2757.56 C 415.914,3570.2 1193.11,4115.8 2057.91,4115.8 c 579.98,0 1135.03,-246.26 1524.81,-676.07 H 2349.16 c -335.68,0 -483.98,-501.86 -640.98,-1033.19 -7.22,-24.42 -14.45,-48.88 -21.72,-73.32 l -2.04,-6.86 h 6.59 c 17.91,-44.45 36.3,-93.98 56.17,-151.29 l 5.37,-15.47 4.78,15.66 c 20.55,67.18 41.25,137.3 59.58,199.32 138.3,467.94 281.3,951.81 532.25,951.81 h 1329.32 c 85.69,-109.32 160.6,-228.01 222.73,-352.84 -90.34,-212.43 -153.58,-562.51 -221.08,-964.45 -63.09,-375.86 -134.61,-801.86 -225.99,-857.73 -4.61,-2.8 -6.49,-2.65 -9.98,-1.55 -9.2,2.91 -57.9,29.93 -114.04,276.54 -38.82,170.45 -69.26,390.47 -98.76,603.64 -64.52,466.32 -105.86,733.21 -205.29,795.98 -16.25,10.25 -34.16,15.48 -52.28,15.48 -9.79,0 -19.64,-1.53 -29.31,-4.61 -114.93,-36.41 -155.02,-278.97 -219.11,-823.76 -22.39,-190.31 -55.71,-473.71 -92.43,-578.21 -37.15,108.14 -67.75,406.94 -86.39,589.02 -42.33,413.58 -64.46,573.89 -129.55,616.61 -19.34,12.71 -41.89,15.92 -63.48,9.02 -78.24,-24.78 -101.07,-157.65 -144.37,-635.88 -11.07,-122.18 -24.61,-271.51 -40.15,-372.16 -7.93,41.56 -14.81,87.81 -20.17,123.86 -26.24,176.69 -45.21,304.36 -137.79,304.36 h -294.41 c -119.34,366.56 -267.66,704.82 -540.75,704.82 -272.579,0 -425.915,-241.26 -551.017,-501.97 l -1.093,-2.29 1.085,-2.3 c 17.184,-36.53 35.504,-76.6 55.985,-122.51 l 4.828,-10.82 4.91,10.78 c 66.047,145.06 139.449,292.23 229.274,389.99 l -4.664,-949.85 c -106.766,118.75 -188.145,301.83 -274.165,495.35 -131.636,296.18 -267.777,602.41 -518.898,676.65 z"
         id="path26" />
    </clipPath>
    <linearGradient
       x1="0"
       y1="0"
       x2="1"
       y2="0"
       gradientUnits="userSpaceOnUse"
       gradientTransform="matrix(2909.83,2909.83,2909.83,-2909.83,603.274,602.98)"
       spreadMethod="pad"
       id="linearGradient38">
      <stop
         style="stop-opacity:1;stop-color:#2e887b"
         offset="0"
         id="stop30" />
      <stop
         style="stop-opacity:1;stop-color:#35b075"
         offset="0.304416"
         id="stop32" />
      <stop
         style="stop-opacity:1;stop-color:#4ec06e"
         offset="0.65142"
         id="stop34" />
      <stop
         style="stop-opacity:1;stop-color:#5bc133"
         offset="1"
         id="stop36" />
    </linearGradient>
  </defs>
  <sodipodi:namedview
     id="namedview4"
     pagecolor="#ffffff"
     bordercolor="#000000"
     borderopacity="0.25"
     inkscape:showpageshadow="2"
     inkscape:pageopacity="0.0"
     inkscape:pagecheckerboard="0"
     inkscape:deskcolor="#d1d1d1" />
  <g
     id="g8"
     inkscape:groupmode="layer"
     inkscape:label="ink_ext_XXXXXX"
     transform="matrix(1.3333333,0,0,-1.3333333,0,548.77333)">
    <g
       id="g10"
       transform="scale(0.1)">
      <path
         d="m 5931.83,1468.33 c 168.09,0 280.99,60.21 280.99,205.72 0,148.02 -105.37,213.25 -260.92,213.25 h -444.05 v -418.97 z m -32.61,702.46 c 122.93,0 183.14,60.21 183.14,158.05 0,97.85 -60.21,163.08 -190.67,163.08 h -383.84 v -321.13 z m -742.6,622.18 h 767.69 c 268.44,0 506.77,-112.9 506.77,-423.99 0,-117.91 -72.75,-238.33 -160.56,-288.51 175.62,-42.65 308.58,-198.19 308.58,-411.44 0,-343.7 -270.95,-501.76 -629.71,-501.76 h -792.77 v 1625.7"
         style="fill:#181c3d;fill-opacity:1;fill-rule:nonzero;stroke:none"
         id="path12" />
      <path
         d="m 6812.38,2421.67 h 336.18 v -1254.4 h -336.18 z m -32.61,351.23 c 0,110.39 90.31,200.7 198.19,200.7 110.38,0 200.7,-90.31 200.7,-200.7 0,-107.88 -90.32,-198.19 -200.7,-198.19 -107.88,0 -198.19,90.31 -198.19,198.19"
         style="fill:#181c3d;fill-opacity:1;fill-rule:nonzero;stroke:none"
         id="path14" />
      <path
         d="m 8365.3,1794.47 c 0,195.69 -140.49,341.2 -328.65,341.2 -188.16,0 -328.65,-145.51 -328.65,-341.2 0,-198.19 140.49,-341.19 328.65,-341.19 188.16,0 328.65,143 328.65,341.19 z m -998.5,0 c 0,363.78 296.04,652.29 669.85,652.29 376.32,0 672.35,-288.51 672.35,-652.29 0,-363.77 -296.03,-652.28 -672.35,-652.28 -373.81,0 -669.85,288.51 -669.85,652.28"
         style="fill:#181c3d;fill-opacity:1;fill-rule:nonzero;stroke:none"
         id="path16" />
      <path
         d="m 8959.88,2792.97 h 303.56 l 255.9,-361.27 c 95.34,-132.96 293.53,-421.47 293.53,-421.47 0,0 200.73,286 293.53,418.97 l 255.9,363.77 h 303.6 v -1625.7 h -351.3 v 1028.61 c 0,0 -62.7,-102.86 -148,-225.79 l -353.73,-504.27 -356.25,506.78 c -82.79,117.91 -145.51,223.28 -145.51,223.28 V 1167.27 h -351.23 v 1625.7"
         style="fill:#181c3d;fill-opacity:1;fill-rule:nonzero;stroke:none"
         id="path18" />
      <path
         d="m 10987,2792.97 h 351.2 V 1468.33 h 940.8 v -301.06 h -1292 v 1625.7"
         style="fill:#181c3d;fill-opacity:1;fill-rule:nonzero;stroke:none"
         id="path20" />
      <g
         id="g22">
        <g
           id="g24"
           clip-path="url(#clipPath28)">
          <path
             d="M 1215.29,2656.74 V 1458.78 c 50.06,10.51 96.8,40.84 142.63,92.54 l -4.98,1018.5 c -43.63,47.59 -89.9,76.81 -137.65,86.92 z M 86.4219,2649.39 C 29.0742,2457.98 0,2259.02 0,2057.9 c 0,-201.21 29.082,-400.23 86.4648,-591.67 26.9332,7.75 53.4532,19.62 78.9262,35.34 l 5.445,1109.34 c -26.738,17.15 -55.102,30.08 -84.4141,38.48 z M 1708.18,1709.24 c -82.19,278.12 -167.12,565.44 -275.9,750.36 l 3.9,-796.91 c 41.71,72.2 82.86,164.56 125.48,281.5 l 5.38,14.77 4.72,-14.99 c 14.4,-45.63 29.84,-96.13 48.57,-158.92 l 0.55,-1.83 -0.74,-1.76 c -58.35,-139.04 -118.22,-241.3 -183.01,-312.5 l 0.07,-12.93 h -12.27 c -75,-77.23 -156.49,-114.78 -249.05,-114.78 -330.118,0 -486.833,352.58 -638.4,693.55 -89.687,201.82 -174.515,392.68 -288.167,510.46 l -4.797,-979.75 c 90.394,91.27 162.996,228.28 243.402,404.88 l 4.91,10.78 4.828,-10.81 c 21.992,-49.31 39.25,-87.12 55.953,-122.6 l 1.086,-2.3 -1.093,-2.28 C 454.676,1637.03 326.121,1418.64 122.125,1358.23 415.895,545.602 1193.1,0 2057.91,0 2637.89,0 3192.94,246.25 3582.72,676.059 H 2349.16 c -335.68,0 -483.97,501.861 -640.98,1033.181 z m -571.7,-251.98 v 1201.3 c -48.81,-6.19 -93.87,-23.74 -137.484,-53.54 l -5.351,-1090.55 c 45.185,-32 91.995,-50.76 142.835,-57.21 z m 2831.33,1368.02 c -74.41,-230.53 -130.58,-565.08 -175.88,-834.95 -88.8,-528.77 -149.75,-856.85 -278.67,-935.66 -32.08,-19.59 -68.23,-24.07 -103.36,-12.88 -152.41,48.31 -211.54,399.7 -290.8,972.68 l -0.22,1.57 c -25.33,182.98 -49.24,355.81 -77.3,491.06 -29.87,143.96 -55.34,195.85 -67.97,214.01 -12.93,-18.79 -38.93,-73.29 -67.77,-227.25 -26.36,-140.8 -47.48,-320.37 -67.92,-494.03 -53.45,-454.46 -82.87,-644.5 -159.76,-694.15 -21.4,-13.84 -46.29,-17.29 -70.11,-9.71 -89.93,28.51 -120.92,195.31 -174.24,716.39 -14.92,145.69 -34.94,341.22 -57.82,454.23 -22.43,-114.69 -40.48,-314.11 -53.92,-462.51 -36.66,-404.91 -54.29,-519.66 -108.42,-555.67 -17.77,-11.81 -39.43,-14.91 -59.44,-8.58 -71.66,22.72 -90.44,126.82 -117.48,308.86 -9.62,64.75 -25.55,171.95 -42.46,207.68 h -241.83 c 22.32,-72.52 44.64,-148.09 64.43,-215.02 138.33,-468.05 281.33,-951.94 532.29,-951.94 h 1329.32 c 286.13,364.98 437.33,803.54 437.33,1268.49 0,265.16 -49.78,523.25 -148,767.38 z M 122.125,2757.56 C 415.914,3570.2 1193.11,4115.8 2057.91,4115.8 c 579.98,0 1135.03,-246.26 1524.81,-676.07 H 2349.16 c -335.68,0 -483.98,-501.86 -640.98,-1033.19 -7.22,-24.42 -14.45,-48.88 -21.72,-73.32 l -2.04,-6.86 h 6.59 c 17.91,-44.45 36.3,-93.98 56.17,-151.29 l 5.37,-15.47 4.78,15.66 c 20.55,67.18 41.25,137.3 59.58,199.32 138.3,467.94 281.3,951.81 532.25,951.81 h 1329.32 c 85.69,-109.32 160.6,-228.01 222.73,-352.84 -90.34,-212.43 -153.58,-562.51 -221.08,-964.45 -63.09,-375.86 -134.61,-801.86 -225.99,-857.73 -4.61,-2.8 -6.49,-2.65 -9.98,-1.55 -9.2,2.91 -57.9,29.93 -114.04,276.54 -38.82,170.45 -69.26,390.47 -98.76,603.64 -64.52,466.32 -105.86,733.21 -205.29,795.98 -16.25,10.25 -34.16,15.48 -52.28,15.48 -9.79,0 -19.64,-1.53 -29.31,-4.61 -114.93,-36.41 -155.02,-278.97 -219.11,-823.76 -22.39,-190.31 -55.71,-473.71 -92.43,-578.21 -37.15,108.14 -67.75,406.94 -86.39,589.02 -42.33,413.58 -64.46,573.89 -129.55,616.61 -19.34,12.71 -41.89,15.92 -63.48,9.02 -78.24,-24.78 -101.07,-157.65 -144.37,-635.88 -11.07,-122.18 -24.61,-271.51 -40.15,-372.16 -7.93,41.56 -14.81,87.81 -20.17,123.86 -26.24,176.69 -45.21,304.36 -137.79,304.36 h -294.41 c -119.34,366.56 -267.66,704.82 -540.75,704.82 -272.579,0 -425.915,-241.26 -551.017,-501.97 l -1.093,-2.29 1.085,-2.3 c 17.184,-36.53 35.504,-76.6 55.985,-122.51 l 4.828,-10.82 4.91,10.78 c 66.047,145.06 139.449,292.23 229.274,389.99 l -4.664,-949.85 c -106.766,118.75 -188.145,301.83 -274.165,495.35 -131.636,296.18 -267.777,602.41 -518.898,676.65"
             style="fill:url(#linearGradient38);fill-opacity:1;fill-rule:nonzero;stroke:none"
             id="path40" />
        </g>
      </g>
    </g>
  </g>
</svg>
